<svg width="200" height="200" viewBox="0 0 200 200" fill="none" xmlns="http://www.w3.org/2000/svg">
  <!-- Background Circle -->
  <circle cx="100" cy="100" r="90" fill="url(#paint0_linear)" />
  
  <!-- Chocolate Drop Shape -->
  <path d="M100 30C83.33 30 70 43.33 70 60C70 76.67 83.33 90 100 90C116.67 90 130 76.67 130 60C130 43.33 116.67 30 100 30ZM100 45C108.28 45 115 51.72 115 60C115 68.28 108.28 75 100 75C91.72 75 85 68.28 85 60C85 51.72 91.72 45 100 45Z" fill="#FFFFFF" />
  
  <!-- Drop Shape -->
  <path d="M145 115C145 143.72 125.38 170 100 170C74.62 170 55 143.72 55 115C55 86.28 100 50 100 50C100 50 145 86.28 145 115Z" fill="#FFFFFF" />
  
  <!-- Text - Chocolate -->
  <path d="M40 130C40 126.69 42.69 124 46 124H55C58.31 124 61 126.69 61 130V141C61 144.31 58.31 147 55 147H46C42.69 147 40 144.31 40 141V130Z" fill="#8B4513" />
  
  <!-- Text - Drop -->
  <path d="M140 130C140 126.69 142.69 124 146 124H155C158.31 124 161 126.69 161 130V141C161 144.31 158.31 147 155 147H146C142.69 147 140 144.31 140 141V130Z" fill="#8B4513" />
  
  <!-- Linear Gradient Definition -->
  <defs>
    <linearGradient id="paint0_linear" x1="10" y1="10" x2="190" y2="190" gradientUnits="userSpaceOnUse">
      <stop offset="0" stop-color="#A0522D" />
      <stop offset="1" stop-color="#8B4513" />
    </linearGradient>
  </defs>
</svg>
