<svg width="600" height="800" viewBox="0 0 600 800" fill="none" xmlns="http://www.w3.org/2000/svg">
  <!-- Background gradient -->
  <rect width="600" height="800" fill="url(#paint0_linear)" />
  
  <!-- Professional silhouette -->
  <path d="M300 250C350 250 390 210 390 160C390 110 350 70 300 70C250 70 210 110 210 160C210 210 250 250 300 250Z" fill="#333" />
  <path d="M420 730C420 645.44 367.28 575 300 575C232.72 575 180 645.44 180 730" stroke="#333" stroke-width="50" />
  
  <!-- Stylized suit outline -->
  <path d="M300 250V575" stroke="#333" stroke-width="30" />
  <path d="M270 300L300 450L330 300" stroke="#333" stroke-width="20" />
  
  <!-- Abstract decorative elements -->
  <circle cx="300" cy="730" r="20" fill="#8B4513" />
  <circle cx="240" cy="160" r="10" fill="#8B4513" />
  <circle cx="360" cy="160" r="10" fill="#8B4513" />

  <!-- Gradient definitions -->
  <defs>
    <linearGradient id="paint0_linear" x1="0" y1="0" x2="600" y2="800" gradientUnits="userSpaceOnUse">
      <stop offset="0" stop-color="#F3F4F6" />
      <stop offset="1" stop-color="#E5E7EB" />
    </linearGradient>
  </defs>
</svg>
